<?xml version="1.0" encoding="utf-8"?>
<!-- Generator: Adobe Illustrator 18.1.1, SVG Export Plug-In . SVG Version: 6.00 Build 0)  -->
<svg version="1.1" id="Calque_1" xmlns="http://www.w3.org/2000/svg" xmlns:xlink="http://www.w3.org/1999/xlink" x="0px" y="0px"
	 width='170px' height='85px' viewBox="0 0 612 792" enable-background="new 0 0 612 792" xml:space="preserve">
<g>
	<g>
		<path fill="#FEFEFE" d="M-515,559c0-175.8,0-351.7-0.1-527.5c0-3.7,0.8-4.6,4.6-4.6c545,0.1,1090,0.1,1635,0
			c3.7,0,4.6,0.8,4.6,4.6c-0.1,175.8-0.1,351.7-0.1,527.5c-1.8,0-3.7,0.1-5.5,0.1c-544.3,0-1088.7,0-1633,0
			C-511.3,559.1-513.2,559-515,559z M504.9,315.2c16.5-15,22.7-22.9,27-35.8c11.5-34.3,2.9-82.7-47.6-105.4
			c-18.4-8.3-37.9-11.2-57.9-11.2c-85.8-0.1-171.7-0.1-257.5-0.1c-9.8,0-11.9,2.2-11.9,12.1c0,61.8,0,123.7,0,185.5
			c0,36.5,0,73,0,109.5c0,7.5,2.6,10.4,9.6,10.4c89,0,178,0.1,267-0.3c21.2-0.1,42.2-3.2,62.2-10.8c22.5-8.5,40.1-22.2,48.7-45.5
			c5.2-14.2,6-28.9,4.4-43.8c-2.7-24.2-13.1-44.2-33.6-58.1C512.1,319.4,508.6,317.4,504.9,315.2z M-92.3,247.1
			c0.4,0.2,0.7,0.4,1.1,0.6c0,1.8,0,3.6,0,5.4c0,72,0,144,0,216c0,8.8,2.2,11.1,10.7,11.1c16,0,32,0,48,0c7.8,0,10.4-2.6,10.4-10.6
			c0-98.8,0-197.7,0-296.5c0-7.6-2.7-10.4-10.1-10.4c-20.8-0.1-41.7,0-62.5-0.1c-3.8,0-6.6,1.3-9.1,4.2c-23.6,28-47.3,56-71,84
			c-24.3,28.8-48.7,57.5-72.9,86.3c-2.5,2.9-3.6,2.6-5.8-0.1c-4-5.1-8.3-10-12.5-15c-43.4-51.5-86.7-103-130-154.5
			c-2.6-3.1-5.4-5-9.7-5c-21,0.1-42,0-63,0.1c-7,0-9.6,2.7-9.6,9.7c0,99.3,0,198.7,0,298c0,7.3,2.6,9.7,10.1,9.7c15.5,0,31,0,46.5,0
			c10.6,0,12.6-1.9,12.6-12.4c0-71.7,0-143.3,0-215c0-1.7,0.1-3.4,0.3-5.9c1.2,1.3,1.8,1.8,2.3,2.4
			c49.2,58.6,98.3,117.2,147.5,175.8c5.8,7,10.4,7.2,15.9,0.6c40.8-48.2,81.6-96.4,122.3-144.7C-111.4,269.7-101.9,258.4-92.3,247.1
			z M913,488.7c18.5-0.3,37.9-1.6,57.2-4.7c50.1-8.1,92.6-30.4,126.9-67.9c5.9-6.4,5.1-11.4-2.7-15.4c-13.6-7.1-27.1-14.2-40.7-21.2
			c-6.8-3.6-8.6-3.3-14.1,2c-17.9,17.4-38.9,29.5-62.8,36.6c-34,10.1-68.6,10.8-103.4,5.6c-24.2-3.7-46.5-12-66.5-26.6
			c-47.4-34.5-47.7-99.1-18.4-133.8c17.7-20.9,40.2-34.1,66.4-41.3c32.7-9,65.9-9.1,99-3.6c32.9,5.5,62.4,18.4,86.5,42.3
			c3.3,3.3,6.9,3.3,11,1.9c14.6-5,29.3-9.9,43.9-14.8c8.5-2.9,9.9-8.6,4-15.6c-26.6-31.7-59.7-53.7-99.2-66.2
			c-43.5-13.7-87.9-16-132.9-10c-45.2,6-85.4,23.1-119.9,53.3c-57.6,50.5-62.2,129-32.4,183.5c17.4,31.8,44.1,53.8,75.9,70.1
			C829,482.3,869.9,488.5,913,488.7z M67,480c9.5,0,19,0.1,28.5,0c8-0.1,12.9-4.6,13.1-12.5c0.2-12.3,0.2-24.6,0-36.9
			c-0.2-8-5.1-12.5-13.1-12.5c-19-0.1-37.9-0.1-56.9,0c-8,0-12.9,4.5-13.1,12.6c-0.3,12.3-0.3,24.6,0,36.9c0.2,8.1,5,12.4,13.1,12.5
			C48.1,480.1,57.6,480,67,480z M628.9,480c9.5,0,19,0,28.5,0c7.9,0,12.8-4.2,13.1-12c0.4-12.6,0.4-25.3,0-37.9
			c-0.2-7.7-5.2-12.1-13-12.1c-19-0.1-37.9-0.1-56.9,0c-8,0-13,4.6-13.2,12.5c-0.2,12.3-0.2,24.6,0,36.9c0.2,8,5.1,12.5,13.1,12.5
			C610,480.1,619.4,480,628.9,480z"/>
		<path fill="#189AA2" d="M1129,572c0,63.7,0,127.3,0.1,191c0,3.3-0.5,4.1-4,4.1C579.7,767,34.3,767-511,767.1c-3.5,0-4-0.8-4-4.1
			c0.1-63.7,0.1-127.3,0.1-191c2.2,0,4.3-0.1,6.5-0.1c543.7,0,1087.3,0,1631,0C1124.7,571.9,1126.8,572,1129,572z M312.5,679
			c261.2,0,522.3,0,783.5,0c8,0,8,0,8-8.1c0-6.9,0-6.9-6.8-6.9c-522.3,0-1044.6,0-1567,0c-8.3,0-8.3,0-8.3,8.4c0,6.6,0,6.6,6.5,6.6
			C-210.2,679,51.2,679,312.5,679z"/>
		<path fill="#F3BC88" d="M1129,572c-2.2,0-4.3-0.1-6.5-0.1c-543.7,0-1087.3,0-1631,0c-2.2,0-4.3,0.1-6.5,0.1c0-4.3,0-8.7,0-13
			c1.8,0,3.7,0.1,5.5,0.1c544.3,0,1088.7,0,1633,0c1.8,0,3.7,0,5.5-0.1C1129,563.3,1129,567.7,1129,572z"/>
		<path fill="#199BA3" d="M504.9,315.2c3.7,2.3,7.2,4.2,10.4,6.4c20.5,14,30.8,33.9,33.6,58.1c1.7,14.9,0.9,29.6-4.4,43.8
			c-8.6,23.3-26.3,37-48.7,45.5c-20,7.6-41,10.7-62.2,10.8c-89,0.3-178,0.2-267,0.3c-7,0-9.6-2.9-9.6-10.4c0-36.5,0-73,0-109.5
			c0-61.8,0-123.7,0-185.5c0-10,2.1-12.1,11.9-12.1c85.8,0,171.7,0,257.5,0.1c20,0,39.5,3,57.9,11.2c50.4,22.7,59.1,71.1,47.6,105.4
			C527.6,292.3,521.5,300.2,504.9,315.2z M334.1,349.9c-34.3,0-68.6,0.1-103-0.1c-3.8,0-5.1,0.8-5,4.9c0.2,19.7,0.2,39.3,0,59
			c-0.1,4.3,1,5.6,5.5,5.5c37.3-0.2,74.6-0.1,112-0.1c27.8,0,55.6,0,83.5-0.1c11.5-0.1,22.9-1.5,33.7-6c7.1-3,13.1-7.3,16.2-14.7
			c7.7-17.8-1.1-38-19.3-44.4c-9.6-3.4-19.5-4-29.5-4C396.7,350,365.4,349.9,334.1,349.9z M332.5,223.7c-33.8,0-67.6,0-101.5-0.1
			c-3.5,0-5,0.5-4.9,4.6c0.2,18.8,0.2,37.7,0,56.5c0,3.2,0.8,4.3,4.2,4.3c65.3-0.1,130.6,0,195.9-0.2c10.9,0,21.1-2.8,29.9-9.6
			c9.8-7.6,14.2-17.4,11.9-29.8c-2.1-11.5-9.5-18.3-19.9-22.4c-7.6-2.9-15.6-3.3-23.6-3.3C393.8,223.7,363.2,223.7,332.5,223.7z"/>
		<path fill="#199BA3" d="M-92.3,247.1c-9.5,11.3-19.1,22.5-28.6,33.8c-40.8,48.2-81.5,96.5-122.3,144.7c-5.6,6.6-10.1,6.3-15.9-0.6
			c-49.1-58.6-98.3-117.2-147.5-175.8c-0.5-0.6-1.1-1.2-2.3-2.4c-0.1,2.5-0.3,4.2-0.3,5.9c0,71.7,0,143.3,0,215
			c0,10.5-1.9,12.4-12.6,12.4c-15.5,0-31,0-46.5,0c-7.5,0-10.1-2.4-10.1-9.7c0-99.3,0-198.7,0-298c0-7.1,2.6-9.7,9.6-9.7
			c21-0.1,42,0.1,63-0.1c4.3,0,7.1,1.9,9.7,5c43.3,51.5,86.7,103,130,154.5c4.2,5,8.5,9.8,12.5,15c2.1,2.8,3.3,3.1,5.8,0.1
			c24.2-28.9,48.6-57.6,72.9-86.3c23.7-28,47.4-56,71-84c2.5-2.9,5.3-4.3,9.1-4.2c20.8,0.1,41.7,0,62.5,0.1
			c7.5,0,10.1,2.8,10.1,10.4c0,98.8,0,197.7,0,296.5c0,8-2.6,10.6-10.4,10.6c-16,0-32,0-48,0c-8.6,0-10.7-2.2-10.7-11.1
			c0-72,0-144,0-216c0-1.8,0-3.6,0-5.4C-91.6,247.5-92,247.3-92.3,247.1z"/>
		<path fill="#199BA3" d="M913,488.7c-43.1-0.2-84-6.4-122-25.8c-31.8-16.2-58.6-38.3-75.9-70.1c-29.8-54.5-25.2-133,32.4-183.5
			C782,179.1,822.3,162,867.5,156c45-6,89.4-3.6,132.9,10c39.4,12.4,72.5,34.5,99.2,66.2c5.9,7,4.4,12.7-4,15.6
			c-14.6,5-29.3,9.8-43.9,14.8c-4.1,1.4-7.8,1.4-11-1.9c-24-23.9-53.5-36.8-86.5-42.3c-33.2-5.5-66.4-5.5-99,3.6
			c-26.1,7.2-48.7,20.4-66.4,41.3c-29.3,34.6-29,99.3,18.4,133.8c20,14.6,42.4,22.9,66.5,26.6c34.8,5.3,69.4,4.5,103.4-5.6
			c23.9-7.1,44.9-19.2,62.8-36.6c5.5-5.3,7.3-5.5,14.1-2c13.6,7.1,27.2,14.1,40.7,21.2c7.7,4.1,8.6,9,2.7,15.4
			c-34.4,37.4-76.9,59.8-126.9,67.9C950.9,487.1,931.5,488.4,913,488.7z"/>
		<path fill="#FE8A28" d="M67,480c-9.5,0-19,0-28.5,0c-8.1-0.1-12.9-4.4-13.1-12.5c-0.3-12.3-0.3-24.6,0-36.9
			c0.2-8.1,5.1-12.5,13.1-12.6c19-0.1,37.9-0.1,56.9,0c8,0,13,4.6,13.1,12.5c0.2,12.3,0.2,24.6,0,36.9c-0.2,8-5.1,12.5-13.1,12.5
			C86,480.1,76.5,480,67,480z"/>
		<path fill="#FE8A27" d="M628.9,480c-9.5,0-19,0-28.5,0c-8-0.1-12.9-4.6-13.1-12.5c-0.2-12.3-0.2-24.6,0-36.9
			c0.2-7.9,5.2-12.5,13.2-12.5c19-0.1,37.9-0.1,56.9,0c7.8,0,12.8,4.4,13,12.1c0.3,12.6,0.3,25.3,0,37.9c-0.2,7.7-5.2,11.9-13.1,12
			C647.9,480.1,638.4,480,628.9,480z"/>
		<path fill="#FEFEFE" d="M312.5,679c-261.3,0-522.7,0-784,0c-6.5,0-6.5,0-6.5-6.6c0-8.4,0-8.4,8.3-8.4c522.3,0,1044.6,0,1567,0
			c6.8,0,6.8,0,6.8,6.9c0,8.1,0,8.1-8,8.1C834.8,679,573.7,679,312.5,679z"/>
		<path fill="#FDFEFE" d="M334.1,349.9c31.3,0,62.6,0,94,0c10,0,20,0.6,29.5,4c18.2,6.4,27,26.6,19.3,44.4
			c-3.2,7.4-9.1,11.7-16.2,14.7c-10.8,4.5-22.2,5.9-33.7,6c-27.8,0.2-55.6,0.1-83.5,0.1c-37.3,0-74.6-0.1-112,0.1
			c-4.5,0-5.5-1.2-5.5-5.5c0.2-19.7,0.2-39.3,0-59c0-4.1,1.2-4.9,5-4.9C265.5,350,299.8,349.9,334.1,349.9z"/>
		<path fill="#FDFEFE" d="M332.5,223.7c30.7,0,61.3,0,92,0c8,0,16,0.4,23.6,3.3c10.5,4,17.8,10.9,19.9,22.4
			c2.3,12.4-2,22.2-11.9,29.8c-8.8,6.8-19,9.6-29.9,9.6c-65.3,0.1-130.6,0.1-195.9,0.2c-3.4,0-4.2-1.1-4.2-4.3
			c0.1-18.8,0.2-37.7,0-56.5c0-4,1.5-4.6,4.9-4.6C264.9,223.8,298.7,223.7,332.5,223.7z"/>
	</g>
</g>
</svg>
